Coordinates
version=1
nRows=6
nColumns=63
inDegrees=yes

Units are S.I. units (second, meters, Newtons, ...)
If the header above contains a line with 'inDegrees', this indicates whether rotational values are in degrees (yes) or radians (no).

endheader
time	pelvis_tilt	pelvis_list	pelvis_rotation	pelvis_tx	pelvis_ty	pelvis_tz	hip_flexion_r	hip_adduction_r	hip_rotation_r	knee_angle_r	knee_angle_r_beta	ankle_angle_r	subtalar_angle_r	mtp_angle_r	hip_flexion_l	hip_adduction_l	hip_rotation_l	knee_angle_l	knee_angle_l_beta	ankle_angle_l	subtalar_angle_l	mtp_angle_l	L5_S1_Flex_Ext	L5_S1_Lat_Bending	L5_S1_axial_rotation	L4_L5_Flex_Ext	L4_L5_Lat_Bending	L4_L5_axial_rotation	L3_L4_Flex_Ext	L3_L4_Lat_Bending	L3_L4_axial_rotation	L2_L3_Flex_Ext	L2_L3_Lat_Bending	L2_L3_axial_rotation	L1_L2_Flex_Ext	L1_L2_Lat_Bending	L1_L2_axial_rotation	L1_T12_Flex_Ext	L1_T12_Lat_Bending	L1_T12_axial_rotation	Abs_r3	Abs_r2	Abs_r1	Abs_t1	Abs_t2	neck_flexion	neck_bending	neck_rotation	arm_flex_r	arm_add_r	arm_rot_r	elbow_flex_r	pro_sup_r	wrist_flex_r	wrist_dev_r	arm_flex_l	arm_add_l	arm_rot_l	elbow_flex_l	pro_sup_l	wrist_flex_l	wrist_dev_l
2.400000	1.906706	-4.308258	86.724347	0.237948	0.811921	0.664314	0.067779	4.534538	7.426278	9.732180	0.169859	41.193606	-8.276157	0.000000	-3.562859	-3.294210	16.360512	0.433521	0.007566	41.698499	-6.361979	0.000000	0.227201	0.740521	-0.456752	0.421935	0.984894	-0.485299	0.373268	1.800504	-0.485299	0.259668	1.800504	-0.399658	0.210979	1.510071	-0.371111	0.129823	1.147068	-0.342564	1.622873	8.376927	-2.540320	0.000000	0.000000	28.379796	-0.726870	1.017001	6.037270	-15.852133	129.913789	12.225068	3.359113	-3.995779	-3.093214	6.004425	-6.311321	163.525492	5.471982	5.986447	-7.780513	-3.516581
2.416667	2.197837	-4.222829	86.649793	0.237596	0.812036	0.664282	-0.034391	4.816307	7.791299	9.645678	0.168349	41.132670	-8.463039	0.000000	-3.698111	-3.570884	16.525219	0.428270	0.007475	41.681947	-6.667736	0.000000	0.202044	0.785427	-0.480461	0.375216	1.044618	-0.510490	0.331938	1.909688	-0.510490	0.230916	1.909688	-0.420403	0.187618	1.601643	-0.390374	0.115448	1.216627	-0.360346	1.443181	8.884910	-2.672179	0.000000	0.000000	28.370735	-0.225866	1.265372	5.992946	-16.233351	128.232305	12.472662	3.360656	-3.899267	-3.057991	5.967774	-6.376563	161.866619	5.524908	5.736472	-8.186851	-3.798226
2.433333	2.492702	-4.123107	86.579457	0.237206	0.812202	0.664133	-0.158228	5.098843	8.146210	9.551128	0.166699	41.072759	-8.635165	0.000000	-3.854857	-3.847362	16.839408	0.422104	0.007367	41.646524	-7.162141	0.000000	0.178647	0.831652	-0.502935	0.331766	1.106097	-0.534368	0.293500	2.022079	-0.534368	0.204176	2.022079	-0.440068	0.165892	1.695905	-0.408634	0.102079	1.288229	-0.377201	1.276061	9.407816	-2.797172	0.000000	0.000000	28.358836	0.212143	1.550249	5.932923	-16.616185	126.808834	12.687394	3.382774	-3.812753	-3.018465	5.918380	-6.414231	160.262053	5.545682	5.510058	-8.600743	-4.109249
2.450000	2.755650	-3.990558	86.498825	0.236832	0.812443	0.663834	-0.337160	5.347027	8.586807	9.426319	0.164520	40.990813	-8.904302	0.000000	-4.052278	-4.087351	16.940015	0.414962	0.007242	41.668022	-7.400332	0.000000	0.154909	0.874390	-0.523086	0.287681	1.162938	-0.555779	0.254500	2.125991	-0.555779	0.177045	2.125991	-0.457700	0.143848	1.783055	-0.425008	0.088515	1.354429	-0.392315	1.106499	9.891269	-2.909249	0.000000	0.000000	28.345730	0.660186	1.928795	5.869742	-16.966082	125.798263	12.845992	3.398299	-3.746465	-2.972849	5.852954	-6.437704	158.768781	5.518563	5.305189	-8.957959	-4.431314
2.466667	2.977733	-3.828917	86.434322	0.236462	0.812765	0.663411	-0.571647	5.554823	9.109680	9.264664	0.161699	40.865257	-9.311850	0.000000	-4.277822	-4.284401	16.958599	0.407777	0.007117	41.718662	-7.516844	0.000000	0.131033	0.911812	-0.543601	0.243341	1.212710	-0.577576	0.215274	2.216979	-0.577576	0.149757	2.216979	-0.475651	0.121677	1.859366	-0.441676	0.074872	1.412396	-0.407701	0.935954	10.314596	-3.023347	0.000000	0.000000	28.329889	1.110354	2.373617	5.807759	-17.266859	125.219818	12.940890	3.406710	-3.698265	-2.917207	5.778449	-6.448722	157.552287	5.426626	5.106102	-9.258858	-4.754001
2.483333	3.164799	-3.663868	86.364393	0.236145	0.813136	0.662888	-0.823134	5.732300	9.722241	9.092353	0.158692	40.687316	-9.867802	0.000000	-4.506178	-4.443518	16.930303	0.398905	0.006962	41.781667	-7.603975	0.000000	0.109655	0.944646	-0.559326	0.203640	1.256379	-0.594283	0.180152	2.296812	-0.594283	0.125325	2.296812	-0.489410	0.101825	1.926322	-0.454452	0.062657	1.463257	-0.419494	0.783254	10.686023	-3.110801	0.000000	0.000000	28.312996	1.546016	2.881403	5.732093	-17.520786	124.993491	12.962246	3.402906	-3.630364	-2.865652	5.687414	-6.445734	156.622015	5.259374	4.923497	-9.518495	-5.063736
